<svg width="407" height="96" viewBox="0 0 407 96" fill="none" xmlns="http://www.w3.org/2000/svg">
<mask id="mask0_2276_822" style="mask-type:luminance" maskUnits="userSpaceOnUse" x="25" y="11" width="77" height="73">
<path d="M25.1953 11.2563H101.667V83.3073H25.1953V11.2563Z" fill="white"/>
</mask>
<g mask="url(#mask0_2276_822)">
<path d="M102.015 75.593C102.015 80.0344 98.1936 83.635 93.4796 83.635H33.7309C29.0169 83.635 25.1953 80.0344 25.1953 75.593V19.2984C25.1953 14.857 29.0169 11.2563 33.7309 11.2563H93.4796C98.1936 11.2563 102.015 14.857 102.015 19.2984V75.593Z" fill="#EB5E28"/>
</g>
<path d="M50.8022 66.5443C43.154 66.5443 36.9326 60.6825 36.9326 53.4765C36.9326 46.2704 43.154 40.4087 50.8022 40.4087C58.4505 40.4087 64.6719 46.2704 64.6719 53.4765C64.6719 60.6825 58.4505 66.5443 50.8022 66.5443ZM50.8022 46.4414C46.6832 46.4414 43.3305 49.5956 43.3305 53.4765C43.3305 57.3574 46.6832 60.5163 50.8022 60.5163C54.9213 60.5163 58.269 57.3574 58.269 53.4765C58.269 49.5956 54.9213 46.4414 50.8022 46.4414Z" fill="#FFFCF2"/>
<path d="M79.7216 71.1042C78.3301 71.1042 76.8731 70.8762 75.3959 70.4106C71.8667 69.3039 69.4568 66.8338 68.6098 63.4564C67.2435 58.0079 70.1828 51.0584 76.2782 45.3106C80.3569 41.4677 82.1467 36.0145 80.5333 32.3426C79.0813 29.0412 75.169 28.3477 72.144 28.3477C67.5057 28.3477 62.5396 31.1741 62.5396 35.3827C62.5396 39.0451 63.3665 41.0355 64.2437 43.1493C65.5596 46.3272 66.9259 49.6143 64.5109 56.4403C63.9513 58.0174 62.1363 58.8772 60.4625 58.3452C58.7836 57.8179 57.8811 56.1126 58.4408 54.5308C60.1247 49.7758 59.4289 48.1085 58.2845 45.3439C57.3266 43.0448 56.1367 40.1804 56.1367 35.3827C56.1367 27.3121 64.4454 22.3149 72.144 22.3149C81.6324 22.3149 85.1767 27.1506 86.4472 30.034C89.0538 35.9575 86.7296 43.9948 80.8056 49.581C75.7236 54.3692 74.1506 59.3047 74.8413 62.0693C75.1791 63.4136 75.9958 64.2449 77.4226 64.6914C79.3637 65.3042 81.0526 65.1807 82.2979 64.3351C83.271 63.6749 83.876 62.5966 83.876 61.523C83.876 59.8557 85.3128 58.5067 87.0774 58.5067C88.842 58.5067 90.2789 59.8557 90.2789 61.523C90.2789 64.5442 88.6958 67.4275 86.0388 69.2278C84.2037 70.4724 82.0458 71.1042 79.7216 71.1042Z" fill="#FFFCF2"/>
<path d="M131.963 18.0293V60.515H151.364V71.1365H119.117V18.0293H131.963Z" fill="#FFFCF2"/>
<path d="M193.19 56.2023H167.76C167.76 58.5204 168.552 60.24 170.14 61.3515C171.738 62.4678 173.472 63.0236 175.343 63.0236C177.304 63.0236 178.852 62.7766 179.981 62.2826C181.121 61.7885 182.426 60.8147 183.893 59.3564L192.646 63.4796C189.001 69.2321 182.936 72.106 174.455 72.106C169.172 72.106 164.639 70.4054 160.863 66.9947C157.082 63.5746 155.196 59.4657 155.196 54.6632C155.196 49.8513 157.082 45.7281 160.863 42.2937C164.639 38.8641 169.172 37.1445 174.455 37.1445C180.021 37.1445 184.544 38.6598 188.028 41.6857C191.506 44.7163 193.251 49.039 193.251 54.6632C193.251 55.4375 193.231 55.9505 193.19 56.2023ZM168.103 49.894H181.433C181.161 48.1745 180.445 46.8539 179.275 45.9419C178.116 45.0204 176.623 44.5548 174.798 44.5548C172.792 44.5548 171.199 45.0489 170.019 46.0369C168.834 47.0249 168.194 48.3122 168.103 49.894Z" fill="#FFFCF2"/>
<path d="M217.565 18.0293H238.135C243.873 18.0293 248.521 19.4259 252.071 22.2095C255.62 24.9978 257.395 29.0592 257.395 34.389C257.395 39.7092 255.59 43.8846 251.99 46.9105C248.4 49.9268 243.782 51.4327 238.135 51.4327H230.412V71.1365H217.565V18.0293ZM230.412 41.7803H234.042C236.905 41.7803 239.255 41.2387 241.1 40.1462C242.955 39.0442 243.883 37.2533 243.883 34.769C243.883 32.2371 242.955 30.4273 241.1 29.3348C239.255 28.2327 236.905 27.6817 234.042 27.6817H230.412V41.7803Z" fill="#FFFCF2"/>
<path d="M265.465 67.0517C262.182 63.6839 260.544 59.5559 260.544 54.6632C260.544 49.761 262.182 45.6189 265.465 42.2367C268.742 38.8451 272.911 37.1445 277.968 37.1445C282.606 37.1445 286.428 38.5221 289.443 41.2677V38.1136H301.543V71.1369H289.584V67.3938H289.443C286.428 70.5384 282.606 72.106 277.968 72.106C272.911 72.106 268.742 70.4244 265.465 67.0517ZM275.75 49.058C274.177 50.5163 273.39 52.3832 273.39 54.6632C273.39 56.9338 274.136 58.7864 275.629 60.2305C277.131 61.665 279.117 62.3776 281.578 62.3776C283.957 62.3776 285.904 61.6508 287.426 60.1925C288.959 58.7389 289.725 56.8958 289.725 54.6632C289.725 52.3832 288.939 50.5163 287.366 49.058C285.793 47.6045 283.862 46.8729 281.578 46.8729C279.264 46.8729 277.323 47.6045 275.75 49.058Z" fill="#FFFCF2"/>
<path d="M309.727 71.1369V38.1136H321.827V42.8828H321.968C322.058 42.707 322.21 42.4932 322.411 42.2367C322.613 41.9707 323.057 41.5242 323.742 40.8877C324.428 40.2417 325.154 39.6669 325.92 39.1586C326.697 38.6408 327.7 38.1801 328.925 37.7716C330.16 37.3535 331.416 37.1445 332.696 37.1445C334.012 37.1445 335.308 37.3155 336.589 37.6576C337.864 37.9996 338.797 38.3416 339.392 38.6836L340.34 39.2156L335.278 48.868C333.785 47.6662 331.693 47.0629 329.006 47.0629C327.539 47.0629 326.283 47.3669 325.235 47.975C324.186 48.5735 323.445 49.3003 323.016 50.1601C322.583 51.0103 322.275 51.7371 322.089 52.3451C321.912 52.9437 321.827 53.4092 321.827 53.7512V71.1369H309.727Z" fill="#FFFCF2"/>
<path d="M346.149 67.0516C342.867 63.6838 341.229 59.5558 341.229 54.6631C341.229 49.7609 342.867 45.6188 346.149 42.2366C349.426 38.845 353.596 37.1444 358.653 37.1444C363.291 37.1444 367.112 38.522 370.127 41.2676V15.7686H382.227V71.1368H370.269V67.3937H370.127C367.112 70.5383 363.291 72.1058 358.653 72.1058C353.596 72.1058 349.426 70.4243 346.149 67.0516ZM356.434 49.0579C354.861 50.5162 354.075 52.383 354.075 54.6631C354.075 56.9337 354.821 58.7863 356.313 60.2304C357.816 61.6649 359.802 62.3774 362.262 62.3774C364.642 62.3774 366.588 61.6507 368.111 60.1924C369.643 58.7388 370.41 56.8957 370.41 54.6631C370.41 52.383 369.623 50.5162 368.05 49.0579C366.477 47.6043 364.546 46.8728 362.262 46.8728C359.948 46.8728 358.007 47.6043 356.434 49.0579Z" fill="#FFFCF2"/>
</svg>
